# xmcd CD database file
#
# Track frame offsets:
#	150
#	16423
#	41538
#	67060
#	89266
#	124634
#	154440
#	178473
#
# Disc length: 2615 seconds
#
# Revision: 0
# Processed by: cddbd v1.5.1PL0 Copyright (c) Steve Scherf et al.
# Submitted via: CDex 1.51
#
DISCID=6d0a3508
DTITLE=Mauro De Federicis - It's Impossible
DYEAR=2005
DGENRE=Jazz
TTITLE0=Maria, marì
TTITLE1=It's Impossible
TTITLE2=Or - tango
TTITLE3=Parla più piano
TTITLE4=Epilogo
TTITLE5=Love is a many - splendored thing
TTITLE6=Nenia
TTITLE7=Epilogo II
EXTD=YEAR: 2005
EXTT0=
EXTT1=
EXTT2=
EXTT3=
EXTT4=
EXTT5=
EXTT6=
EXTT7=
PLAYORDER=
